<svg width="75" height="75" viewBox="0 0 75 75" fill="none" xmlns="http://www.w3.org/2000/svg">
<path d="M75 34.6154C74.3122 25.7252 70.4641 17.333 64.0957 10.9835C57.042 3.95098 47.4753 0.000179291 37.5 0.00012207C27.5245 0.00012207 17.9571 3.95077 10.9033 10.9835C4.53493 17.333 0.687802 25.7252 0 34.6154H17.5518C19.1916 25.4331 27.2398 18.4613 36.9209 18.4611C46.6021 18.4611 54.6502 25.433 56.29 34.6154H75Z" fill="white"/>
<path d="M74.8916 41.5385C73.9725 49.9988 70.1878 57.942 64.0957 64.016C57.042 71.0487 47.4754 75.0003 37.5 75.0004C27.5245 75.0004 17.9571 71.0487 10.9033 64.016C4.81129 57.942 1.02756 49.9987 0.108398 41.5385H17.7959C19.8778 50.1444 27.6498 56.5383 36.9209 56.5385C46.1922 56.5385 53.965 50.1445 56.0469 41.5385H74.8916Z" fill="white"/>
<ellipse cx="12.7306" cy="12.6923" rx="12.7306" ry="12.6923" transform="matrix(1 0 0 -1 24.1907 50.7693)" fill="white"/>
</svg>
